<mxfile host="app.diagrams.net" modified="2023-07-04T22:13:58.608Z" agent="Mozilla/5.0 (Windows NT 10.0; Win64; x64; rv:109.0) Gecko/20100101 Firefox/114.0" version="21.5.2" etag="iGBMG2Ixb9njgwuWeili" type="github">
  <diagram name="PÃ¡gina-1" id="ZlWJFY-B5qq6EpQQbsB3">
    <mxGraphModel>
      <root>
        <mxCell id="0" />
        <mxCell id="1" parent="0" />
      </root>
    </mxGraphModel>
  </diagram>
</mxfile>
